<svg width="64" height="52" viewBox="0 0 64 52" fill="none" xmlns="http://www.w3.org/2000/svg">
<mask id="mask0_10_40" style="mask-type:alpha" maskUnits="userSpaceOnUse" x="0" y="0" width="64" height="52">
<path d="M17.6573 17.8655V44.2804C18.5107 44.1607 19.3859 44.0248 20.283 43.8725V16.185C19.3421 16.7506 18.4669 17.3108 17.6573 17.8655Z" fill="url(#paint0_linear_10_40)"/>
<path d="M45.3906 3.361C45.3688 3.31749 45.3524 3.27398 45.3414 3.23048C45.3086 3.17609 45.2812 3.11627 45.2594 3.05101C45.2375 2.99662 45.2101 2.94224 45.1773 2.88785C45.1554 2.85522 45.139 2.81715 45.1281 2.77364C45.0843 2.70838 45.046 2.64856 45.0132 2.59417C45.0023 2.58329 44.9968 2.57242 44.9968 2.56154C44.1927 1.27261 42.765 0.407888 41.1404 0.407888H22.203C19.7086 0.407888 17.6737 2.44733 17.6737 4.92729V13.1177C18.4942 12.6445 19.3804 12.1551 20.2994 11.6982V4.92729C20.2994 3.8831 21.1527 3.01837 22.203 3.01837H41.1404C41.2717 3.02925 41.4084 3.04557 41.5506 3.06732C41.6272 3.08908 41.7038 3.11083 41.7804 3.13258C41.8023 3.14346 41.8241 3.15434 41.846 3.16521C41.9335 3.19785 42.0211 3.24135 42.1086 3.29574C42.1195 3.29574 42.1305 3.30118 42.1414 3.31205C42.2071 3.35556 42.2727 3.40451 42.3383 3.45889C42.3712 3.48065 42.3985 3.5024 42.4204 3.52416C42.4641 3.56766 42.5079 3.61117 42.5517 3.65468C42.5845 3.68731 42.6118 3.71994 42.6337 3.75257C42.6775 3.80696 42.7158 3.86134 42.7486 3.91573C42.7595 3.93748 42.7759 3.95924 42.7978 3.98099C42.9619 4.25836 43.044 4.58467 43.044 4.92729V5.41676H45.6696V4.92729C45.6696 4.37256 45.5712 3.85047 45.3906 3.361Z" fill="url(#paint1_linear_10_40)"/>
<path d="M45.6697 33.5447V7.12989C44.8273 7.23866 43.9521 7.37462 43.044 7.53778V35.2252C43.9849 34.6596 44.8601 34.0995 45.6697 33.5447Z" fill="url(#paint2_linear_10_40)"/>
<path d="M0.180366 27.2306C0.935237 29.3517 4.54549 30.249 9.84601 29.988C7.05626 29.6943 5.21831 28.8622 4.7096 27.4427C3.18344 23.1844 14.3424 15.3529 29.6368 9.95248C41.5506 5.74307 52.447 4.25835 57.4029 5.82465C54.1045 2.54522 40.8942 3.7852 26.2399 8.95723C10.2563 14.6024 -1.41143 22.7765 0.180366 27.2306Z" fill="url(#paint3_linear_10_40)"/>
<path style="mix-blend-mode:screen" d="M9.68198 30.0043C9.73668 30.0043 9.79138 29.9988 9.84608 29.988C7.05634 29.6943 5.21839 28.8622 4.70967 27.4427C3.18352 23.1844 14.3425 15.3529 29.6369 9.95248C39.1876 6.57516 48.0984 4.95992 53.8092 5.2536C54.8266 5.21009 55.7729 5.21009 56.6481 5.2536C55.483 4.55203 53.6943 4.16046 51.4461 4.04625C45.5712 4.29099 37.5794 5.97149 29.1117 8.95723C13.1281 14.6024 1.46044 22.7765 3.05224 27.2306C3.65942 28.9111 6.07173 29.8248 9.68198 30.0043Z" fill="url(#paint4_linear_10_40)"/>
<path d="M8.45107 26.3659C9.02543 27.9648 11.4706 28.7643 15.1136 28.7969C13.2757 28.4217 12.0449 27.7038 11.6675 26.6433C10.2562 22.6949 20.5618 15.4671 34.6747 10.4909C41.567 8.05988 48.0818 6.60779 53.1198 6.23254C47.9506 5.93886 39.8111 7.40725 31.0808 10.4909C17.1977 15.3856 7.07261 22.4991 8.45107 26.3659Z" fill="url(#paint5_linear_10_40)"/>
<path style="mix-blend-mode:screen" d="M33.0829 10.5888C19.1998 15.4998 9.05829 22.597 10.4532 26.4638C10.8962 27.7364 12.5373 28.5032 15.0316 28.7806C13.2265 28.4053 12.045 27.6875 11.6675 26.6433C10.2562 22.6949 20.5619 15.4671 34.6747 10.4909C40.9106 8.28829 46.8511 6.90147 51.6429 6.36306C46.6378 6.70568 40.0573 8.12514 33.0829 10.5888Z" fill="url(#paint6_linear_10_40)"/>
<path d="M34.7241 4.71519C34.7241 5.10676 34.3959 5.41676 34.002 5.41676C33.6082 5.41676 33.2964 5.10676 33.2964 4.71519C33.2964 4.32362 33.6082 4.01362 34.002 4.01362C34.3959 4.01362 34.7241 4.32362 34.7241 4.71519Z" fill="url(#paint7_linear_10_40)"/>
<path d="M29.3415 5.41676H31.9343C32.3281 5.41676 32.6399 5.10676 32.6399 4.71519C32.6399 4.32362 32.3281 4.01362 31.9343 4.01362H29.3415C28.9476 4.01362 28.6358 4.32362 28.6358 4.71519C28.6358 5.10676 28.9476 5.41676 29.3415 5.41676Z" fill="url(#paint8_linear_10_40)"/>
<path d="M17.9527 48.0493C17.9746 48.0928 17.991 48.1363 18.0019 48.1798C18.0238 48.2342 18.0512 48.2885 18.084 48.3429C18.1059 48.4082 18.1332 48.468 18.166 48.5224C18.177 48.555 18.1934 48.5931 18.2153 48.6366C18.2481 48.7019 18.2864 48.7617 18.3301 48.8161C18.3301 48.827 18.3356 48.8378 18.3465 48.8487C19.1507 50.1376 20.5783 50.9861 22.203 50.9861H41.124C43.6348 50.9861 45.6696 48.9629 45.6696 46.483V38.2926C44.8491 38.7657 43.963 39.2389 43.044 39.712V46.483C43.044 47.5272 42.1907 48.3756 41.124 48.3756H22.203C22.0607 48.3756 21.924 48.3647 21.7927 48.3429C21.7161 48.3212 21.6395 48.2994 21.563 48.2777C21.5411 48.2668 21.5192 48.2559 21.4973 48.245C21.3989 48.2124 21.3113 48.1689 21.2348 48.1145C21.2238 48.1036 21.2129 48.0982 21.2019 48.0982C21.1254 48.0547 21.0542 48.0057 20.9886 47.9514C20.9667 47.9296 20.9394 47.9024 20.9065 47.8698C20.8628 47.8372 20.8245 47.7991 20.7917 47.7556C20.7589 47.7229 20.7315 47.6903 20.7096 47.6577C20.6659 47.6033 20.6276 47.5489 20.5948 47.4945C20.5729 47.4728 20.5565 47.451 20.5455 47.4293C20.3814 47.1519 20.283 46.8256 20.283 46.483V45.9935H17.6573V46.483C17.6573 47.0377 17.7722 47.5598 17.9527 48.0493Z" fill="url(#paint9_linear_10_40)"/>
<path d="M63.1629 24.1796C62.408 22.0586 58.7814 21.1612 53.4808 21.406C56.287 21.716 58.1249 22.5481 58.6337 23.9675C60.1434 28.2259 48.9844 36.0573 33.7065 41.4578C21.7926 45.6672 10.8962 47.1519 5.94032 45.5856C9.23878 48.865 22.4326 47.6251 37.1034 42.453C53.087 36.8079 64.7547 28.6174 63.1629 24.1796Z" fill="url(#paint10_linear_10_40)"/>
<path style="mix-blend-mode:screen" d="M53.6614 21.406C53.5957 21.406 53.5356 21.406 53.4809 21.406C56.287 21.716 58.125 22.5481 58.6337 23.9675C60.1434 28.2259 48.9844 36.0573 33.7065 41.4578C24.1393 44.8351 15.245 46.4503 9.53419 46.1566C8.51675 46.2002 7.56496 46.2002 6.6788 46.1566C7.86034 46.8582 9.63265 47.2498 11.8973 47.364C17.7721 47.1193 25.7475 45.4388 34.2316 42.453C50.1988 36.8078 61.8665 28.6174 60.2747 24.1796C59.6839 22.4991 57.2716 21.5855 53.6614 21.406Z" fill="url(#paint11_linear_10_40)"/>
<path d="M54.8923 25.0444C54.3179 23.4454 51.8728 22.646 48.2133 22.6133C50.0676 22.9886 51.2984 23.6902 51.6758 24.767C53.0871 28.699 42.7815 35.9268 28.6523 40.9194C21.7764 43.3504 15.2451 44.7861 10.2071 45.1777C15.3928 45.4714 23.5158 44.003 32.2461 40.9194C46.1292 36.0247 56.2707 28.9111 54.8923 25.0444Z" fill="url(#paint12_linear_10_40)"/>
<path style="mix-blend-mode:screen" d="M30.2603 40.8215C44.1434 35.9105 54.2685 28.8132 52.89 24.9301C52.4469 23.6738 50.7895 22.907 48.3116 22.6297C50.1167 23.0049 51.2982 23.7228 51.6757 24.767C53.0869 28.699 42.7813 35.9268 28.6521 40.9194C22.4162 43.122 16.4921 44.5088 11.6839 45.0309C16.7054 44.7046 23.2859 43.2851 30.2603 40.8215Z" fill="url(#paint13_linear_10_40)"/>
</mask>
<g mask="url(#mask0_10_40)">
<rect width="64" height="52.3636" fill="white"/>
</g>
<defs>
<linearGradient id="paint0_linear_10_40" x1="171.06" y1="16.185" x2="171.06" y2="44.2804" gradientUnits="userSpaceOnUse">
<stop stop-color="#05EAFF"/>
<stop offset="1" stop-color="#001AC3"/>
</linearGradient>
<linearGradient id="paint1_linear_10_40" x1="45.6696" y1="13.1177" x2="17.6737" y2="13.1177" gradientUnits="userSpaceOnUse">
<stop stop-color="#F12711"/>
<stop offset="1" stop-color="#F5AF19"/>
</linearGradient>
<linearGradient id="paint2_linear_10_40" x1="-107.717" y1="35.2252" x2="-107.717" y2="7.12989" gradientUnits="userSpaceOnUse">
<stop stop-color="#05EAFF"/>
<stop offset="1" stop-color="#001AC3"/>
</linearGradient>
<linearGradient id="paint3_linear_10_40" x1="62.8347" y1="14.4392" x2="9.59908" y2="44.2814" gradientUnits="userSpaceOnUse">
<stop stop-color="#F12711"/>
<stop offset="1" stop-color="#F5AF19"/>
</linearGradient>
<linearGradient id="paint4_linear_10_40" x1="62.5887" y1="15.3366" x2="12.0697" y2="43.6644" gradientUnits="userSpaceOnUse">
<stop/>
<stop offset="1" stop-color="#F5AF19"/>
</linearGradient>
<linearGradient id="paint5_linear_10_40" x1="52.0039" y1="15.7934" x2="17.7575" y2="44.8674" gradientUnits="userSpaceOnUse">
<stop stop-color="#001AC3"/>
<stop offset="1" stop-color="#05EAFF"/>
</linearGradient>
<linearGradient id="paint6_linear_10_40" x1="51.6101" y1="16.6255" x2="19.307" y2="44.0405" gradientUnits="userSpaceOnUse">
<stop/>
<stop offset="1" stop-color="#05EAFF"/>
</linearGradient>
<linearGradient id="paint7_linear_10_40" x1="28.242" y1="4.01362" x2="34.9702" y2="4.01362" gradientUnits="userSpaceOnUse">
<stop stop-color="#F5AF19"/>
<stop offset="1" stop-color="#F12711"/>
</linearGradient>
<linearGradient id="paint8_linear_10_40" x1="28.242" y1="4.01362" x2="34.9702" y2="4.01362" gradientUnits="userSpaceOnUse">
<stop stop-color="#F5AF19"/>
<stop offset="1" stop-color="#F12711"/>
</linearGradient>
<linearGradient id="paint9_linear_10_40" x1="17.6573" y1="38.2926" x2="45.6696" y2="38.2926" gradientUnits="userSpaceOnUse">
<stop stop-color="#F12711"/>
<stop offset="1" stop-color="#F5AF19"/>
</linearGradient>
<linearGradient id="paint10_linear_10_40" x1="0.492118" y1="36.971" x2="53.7278" y2="7.12885" gradientUnits="userSpaceOnUse">
<stop stop-color="#F12711"/>
<stop offset="1" stop-color="#F5AF19"/>
</linearGradient>
<linearGradient id="paint11_linear_10_40" x1="0.73829" y1="36.0736" x2="51.2737" y2="7.74581" gradientUnits="userSpaceOnUse">
<stop/>
<stop offset="1" stop-color="#F5AF19"/>
</linearGradient>
<linearGradient id="paint12_linear_10_40" x1="11.3394" y1="35.6168" x2="45.5858" y2="6.54288" gradientUnits="userSpaceOnUse">
<stop stop-color="#001AC3"/>
<stop offset="1" stop-color="#05EAFF"/>
</linearGradient>
<linearGradient id="paint13_linear_10_40" x1="11.7167" y1="34.7847" x2="44.0196" y2="7.35343" gradientUnits="userSpaceOnUse">
<stop/>
<stop offset="1" stop-color="#05EAFF"/>
</linearGradient>
</defs>
</svg>
